<svg xmlns="http://www.w3.org/2000/svg" viewBox="0 0 2664 2664" fill="none">
<!--
  Midjourney-U Sailboat Icon — Final Clean Vector
  Potrace from source raster | Cleaned & optimized
  Amber: #E5922E | Sail interiors: #FFFFFF | BG: transparent
  Vasey Multimedia / VASEY/AI — Midjourney-U App
  7 amber paths, 7 white paths
  ~15000 bytes
-->
<g transform="translate(0,2664) scale(0.1,-0.1)">
<g fill="#E5922E">
<path d="M3948 23288 c-56 -7 -94 -31 -116 -72 -16 -29 -17 -161 -18 -1891 -1
-1023 -3 -1984 -5 -2135 -4 -275 -4 -275 21 -324 48 -95 17 -91 682 -92 742 0
669 39 680 -367 7 -253 1 -8850 -7 -10417 -4 -776 4 -1136 29 -1214 21 -67 60
-106 106 -106 44 0 93 31 220 139 52 44 142 108 200 143 120 71 174 121 191
178 17 57 5 89 -101 269 -280 473 -321 654 -205 908 37 79 109 165 165 193 72
37 115 42 400 50 311 8 356 15 394 60 51 62 50 10 38 1888 -15 2324 -15 7260
0 8407 14 1077 13 1084 -82 1140 -34 19 -50 20 -617 20 l-583 0 -37 38 -38 37
1 843 c0 615 3 853 12 882 6 23 27 56 46 74 l35 34 1723 4 c948 3 2189 1 2758
-2 l1035 -7 41 -42 c41 -41 41 -41 47 -150 4 -59 5 -111 3 -115 -3 -4 -1 -330
4 -725 7 -516 6 -731 -1 -762 -12 -46 -64 -103 -97 -106 -9 0 -246 -1 -527 -2
-589 -1 -569 2 -614 -90 -24 -48 -25 -53 -25 -335 -1 -357 2 -370 108 -477 41
-41 122 -103 191 -148 249 -162 324 -219 537 -409 105 -94 135 -111 174 -101
33 9 50 36 68 113 16 70 43 106 96 129 45 19 843 35 1152 22 129 -5 224 -4
250 2 55 12 103 58 117 111 9 31 11 597 9 2162 -3 2120 -3 2120 -25 2167 -11
25 -33 54 -48 64 -26 17 -233 18 -4184 18 -2287 1 -4178 -2 -4203 -6z"/>
<path d="M14383 23289 c-61 -12 -94 -44 -113 -108 -5 -19 -10 -907 -11 -2144
-1 -1952 0 -2115 15 -2152 22 -51 61 -92 100 -105 40 -12 1007 -18 1253 -7
l182 9 43 -40 43 -41 9 -503 c5 -312 5 -775 -1 -1218 -6 -429 -7 -745 -1 -790
15 -130 61 -199 297 -445 221 -229 508 -566 628 -735 108 -152 193 -215 234
-173 19 19 20 60 20 2571 1 2479 0 2553 -18 2584 -10 18 -36 42 -58 53 -39 19
-60 20 -632 20 l-592 0 -36 35 c-19 19 -40 50 -46 70 -6 23 -9 332 -7 902 3
866 3 866 27 892 39 42 76 49 193 35 74 -8 840 -13 2733 -18 1818 -6 2638 -11
2655 -18 53 -23 81 -66 91 -139 13 -100 22 -1212 12 -1467 -9 -218 -9 -218
-45 -254 -49 -49 -70 -51 -414 -41 -421 13 -778 7 -825 -14 -40 -18 -74 -65
-84 -118 -3 -19 -9 -2229 -11 -4910 -3 -2681 -6 -5010 -7 -5175 -2 -348 0
-360 83 -403 43 -23 52 -24 193 -18 165 6 240 -4 274 -36 113 -106 -236 -188
-887 -208 -168 -5 -372 -16 -455 -24 -82 -8 -253 -17 -380 -21 -262 -7 -463
-20 -650 -41 -134 -16 -274 -26 -955 -69 -217 -14 -521 -36 -675 -50 -345 -31
-524 -42 -865 -55 -146 -6 -420 -24 -610 -40 -190 -16 -491 -39 -670 -50 -179
-11 -374 -25 -435 -30 -60 -5 -236 -16 -390 -25 -154 -8 -290 -18 -302 -20
-12 -3 -237 -16 -500 -30 -263 -14 -552 -29 -643 -35 -91 -5 -295 -17 -455
-25 -159 -8 -344 -20 -410 -25 -66 -6 -223 -15 -350 -20 -410 -17 -625 -29
-708 -40 -45 -5 -161 -14 -257 -20 -96 -6 -231 -17 -300 -25 -131 -15 -477
-40 -690 -50 -69 -3 -237 -12 -375 -20 -137 -8 -403 -19 -590 -25 -198 -5
-419 -18 -530 -29 -104 -11 -318 -27 -475 -36 -157 -9 -348 -20 -425 -25 -77
-5 -250 -14 -385 -19 -264 -11 -316 -20 -377 -67 -55 -42 -76 -100 -71 -199 4
-78 8 -89 90 -262 48 -100 122 -244 166 -321 160 -280 184 -365 121 -436 -16
-19 -63 -59 -102 -88 -108 -79 -217 -169 -369 -306 -152 -138 -237 -206 -393
-312 -120 -81 -186 -113 -330 -159 -138 -44 -212 -86 -252 -144 -100 -148 -11
-316 169 -317 266 -1 587 171 1213 649 286 218 334 254 405 298 129 80 303
130 391 113 26 -5 93 -30 150 -56 57 -25 164 -66 237 -90 186 -62 207 -75 382
-228 289 -255 436 -356 731 -501 198 -98 351 -150 491 -169 545 -75 868 46
1463 549 358 301 550 426 711 460 83 18 333 20 420 4 122 -22 319 -139 519
-308 61 -51 157 -133 215 -182 362 -304 717 -492 1000 -530 123 -16 325 -16
420 0 171 30 452 147 595 249 110 78 324 248 469 372 250 215 414 322 571 376
155 52 437 44 595 -17 105 -40 297 -166 435 -284 166 -141 469 -379 575 -452
137 -93 397 -211 523 -237 512 -106 874 22 1476 524 173 143 402 316 489 367
116 69 185 91 340 109 362 42 532 -36 1087 -501 239 -200 434 -321 705 -437
145 -62 205 -77 355 -84 140 -8 189 2 242 49 46 40 63 82 63 152 0 144 -76
198 -390 275 -165 41 -294 103 -437 211 -253 191 -503 426 -503 472 0 30 39
67 71 67 43 0 127 -47 262 -148 157 -118 164 -122 215 -122 54 0 88 29 107 93
17 56 20 2582 12 9110 -4 3100 -9 2854 55 2900 33 24 38 24 428 9 168 -6 411
-13 540 -14 233 -3 235 -3 285 22 31 16 57 38 69 60 20 34 20 57 18 2175 -2
1319 -7 2154 -13 2177 -10 38 -58 87 -87 89 -76 4 -8348 3 -8369 -2z m4976
-14943 l32 -33 -55 -50 c-103 -94 -320 -259 -466 -353 -80 -52 -175 -117 -213
-145 -37 -28 -106 -71 -155 -96 -48 -24 -130 -71 -182 -105 -52 -33 -133 -82
-180 -109 -47 -26 -112 -65 -145 -85 -33 -20 -137 -74 -232 -119 -95 -45 -208
-102 -252 -126 -201 -111 -479 -249 -554 -275 -45 -15 -106 -37 -136 -49 -54
-22 -54 -22 -87 10 l-33 32 38 46 c45 54 88 125 118 196 12 28 62 133 111 235
105 216 111 236 151 440 55 285 61 320 61 370 0 43 5 56 33 86 33 36 33 36
212 38 172 2 291 10 615 41 212 21 529 42 820 56 140 6 293 15 340 19 47 4 94
8 106 9 11 0 34 -14 53 -33z m-3611 -269 c31 -32 31 -32 11 -111 -11 -44 -32
-102 -46 -130 -35 -69 -146 -227 -210 -299 -66 -75 -69 -103 -16 -171 l37 -47
-35 -33 c-30 -29 -46 -35 -134 -50 -268 -45 -539 -176 -797 -383 -211 -169
-295 -239 -348 -288 -30 -28 -77 -66 -105 -85 -27 -19 -85 -60 -128 -92 -208
-153 -366 -208 -599 -208 -197 1 -335 49 -552 194 -127 85 -387 286 -586 455
-207 175 -376 272 -597 345 -154 50 -237 65 -356 66 -76 0 -79 1 -119 38 l-40
38 26 52 c45 89 38 113 -77 265 -32 42 -64 92 -72 111 -14 32 -13 34 20 66 35
34 35 34 217 42 101 4 248 15 328 23 80 8 237 19 350 25 113 6 279 18 370 25
234 21 919 65 1700 110 146 8 330 19 410 25 324 22 903 46 1146 48 170 2 170
2 202 -31z m-6151 -379 c21 -22 37 -54 47 -94 77 -300 250 -635 395 -763 39
-35 71 -68 71 -75 0 -16 -178 -190 -275 -268 -121 -98 -257 -186 -369 -239
-290 -137 -616 -97 -988 122 -187 110 -343 229 -643 494 -364 321 -598 431
-975 461 -79 6 -87 9 -121 41 -20 19 -45 53 -55 75 -18 39 -18 39 17 74 40 39
41 40 387 64 84 6 244 17 355 26 111 8 303 21 427 30 124 8 281 19 350 24 69
5 242 14 385 20 143 6 346 17 450 23 105 7 262 14 351 15 160 2 160 2 191 -30z"/>
<path d="M7177 20279 c-114 -27 -167 -99 -167 -226 1 -89 21 -137 148 -350
128 -216 263 -466 303 -563 67 -162 137 -317 269 -600 124 -263 203 -447 225
-520 4 -14 32 -79 62 -145 38 -82 77 -197 124 -363 38 -133 94 -304 123 -380
183 -461 307 -1073 431 -2122 41 -343 38 -1052 -5 -1380 -95 -729 -145 -1009
-237 -1340 -19 -69 -46 -165 -59 -215 -76 -282 -371 -1019 -527 -1315 -194
-368 -450 -785 -656 -1068 -257 -352 -281 -395 -281 -496 1 -75 50 -151 113
-175 106 -40 243 15 650 261 176 107 264 148 377 177 90 23 172 64 314 154
175 112 758 317 1256 441 58 14 164 41 235 60 72 19 189 41 260 50 72 9 216
32 320 51 209 38 565 87 775 107 177 17 845 17 1100 0 376 -25 691 -62 845
-101 66 -17 206 -46 310 -66 195 -36 524 -115 745 -178 238 -69 488 -137 596
-162 177 -42 238 -63 459 -157 344 -146 428 -159 534 -80 96 71 95 187 -4 657
-50 238 -133 554 -268 1020 -124 428 -170 568 -265 796 -33 79 -80 196 -105
259 -24 63 -72 174 -104 245 -33 72 -88 191 -121 265 -87 192 -443 883 -482
935 -4 6 -39 67 -78 137 -39 70 -138 234 -221 365 -548 874 -1090 1572 -1880
2423 -215 231 -787 789 -1016 990 -115 101 -237 209 -270 239 -186 171 -503
420 -745 584 -47 31 -134 96 -195 143 -60 47 -179 137 -264 201 -85 64 -198
150 -250 191 -114 89 -226 164 -381 257 -63 38 -185 111 -270 164 -309 190
-634 367 -1052 575 -490 245 -576 277 -671 255z m1185 -1315 c46 -26 134 -81
197 -122 136 -89 486 -299 557 -335 58 -29 331 -232 447 -332 75 -64 79 -69
72 -99 -9 -39 -20 -3101 -20 -5461 0 -1442 3 -1786 13 -1810 7 -16 38 -56 69
-88 l56 -59 -39 -39 c-38 -38 -50 -42 -274 -103 -312 -86 -756 -236 -1045
-355 l-100 -41 -34 34 -34 34 80 153 c44 85 91 181 103 214 13 33 37 82 53
109 65 111 121 235 162 359 24 73 53 155 65 182 12 28 47 129 77 225 94 302
130 414 146 450 31 71 108 361 122 461 8 57 26 158 39 224 44 215 56 289 71
446 9 84 18 161 20 169 4 16 25 257 46 520 35 456 -3 1404 -76 1877 -8 54 -22
141 -30 193 -59 388 -305 1420 -379 1597 -13 32 -61 175 -107 318 -45 143 -91
280 -101 305 -11 25 -39 99 -63 165 -55 152 -87 229 -135 324 -41 83 -146 339
-180 440 -21 64 -21 64 11 97 32 33 32 33 80 14 27 -11 86 -41 131 -66z m2618
-1940 c30 -31 96 -83 145 -117 50 -33 149 -113 220 -178 167 -150 710 -698
802 -809 39 -47 83 -96 98 -110 25 -22 71 -74 312 -351 121 -138 236 -278 270
-330 20 -30 62 -85 94 -124 31 -38 81 -108 111 -155 31 -47 77 -109 104 -139
27 -30 92 -114 144 -186 52 -73 120 -166 151 -206 69 -91 216 -323 362 -569
60 -102 126 -210 147 -240 20 -30 58 -96 83 -147 26 -50 72 -130 103 -178 31
-48 87 -153 124 -233 37 -81 86 -185 110 -232 24 -47 58 -121 77 -165 19 -44
54 -114 77 -155 24 -41 55 -102 69 -135 69 -159 195 -486 242 -625 29 -85 71
-202 94 -259 23 -58 57 -155 76 -215 19 -61 52 -163 74 -226 39 -115 64 -213
121 -473 37 -170 37 -166 -2 -204 l-33 -31 -190 53 c-104 30 -233 67 -285 84
-265 85 -323 102 -415 124 -55 14 -179 45 -275 70 -96 25 -265 62 -374 82
-110 20 -202 38 -206 40 -10 6 -314 53 -390 60 -36 4 -132 15 -215 26 -461 58
-1141 65 -1818 18 -169 -12 -169 -12 -202 22 l-34 34 40 64 39 65 1 1295 c1
713 2 2005 3 2871 1 866 5 1643 10 1725 8 149 9 150 39 183 17 17 34 32 37 32
3 0 30 -25 60 -56z"/>
<path d="M11856 18485 c-157 -56 -204 -235 -95 -359 21 -23 102 -87 181 -142
78 -54 179 -128 223 -164 44 -36 121 -97 170 -135 455 -353 1022 -921 1547
-1548 226 -271 340 -421 518 -687 68 -102 153 -225 188 -275 35 -49 96 -144
135 -210 39 -66 110 -178 157 -250 314 -473 831 -1486 1078 -2110 28 -71 77
-193 107 -270 161 -402 265 -677 330 -870 133 -396 263 -829 364 -1212 100
-376 154 -417 456 -338 255 65 426 70 600 14 109 -35 176 -40 350 -24 147 12
341 -47 650 -200 222 -110 321 -127 420 -72 66 37 98 110 93 217 -7 151 -257
865 -473 1350 -48 107 -112 254 -142 325 -86 202 -267 555 -515 1010 -284 518
-952 1537 -1258 1920 -31 39 -99 129 -150 200 -119 165 -214 282 -381 471 -74
83 -195 224 -269 314 -212 257 -788 852 -1050 1083 -63 56 -173 156 -245 222
-340 312 -833 686 -1358 1028 -398 260 -899 521 -1232 640 -240 87 -318 101
-399 72z m3298 -2915 c59 -58 159 -166 220 -240 62 -74 198 -217 302 -318 227
-220 265 -274 218 -313 -66 -54 -66 -236 0 -443 23 -75 23 -75 -8 -105 l-32
-31 -35 38 c-20 20 -58 72 -85 116 -27 43 -71 113 -98 155 -27 42 -79 130
-116 196 -36 66 -102 183 -145 260 -83 149 -165 277 -250 390 -28 39 -71 104
-94 145 -24 41 -49 82 -56 90 -7 8 -43 62 -79 119 l-66 105 31 32 32 33 76
-62 c42 -34 125 -109 185 -167z m2227 -2853 c34 -56 104 -163 154 -237 141
-208 259 -420 468 -845 16 -33 69 -132 118 -220 102 -185 194 -389 269 -595
29 -80 72 -183 96 -230 24 -47 50 -104 58 -126 14 -42 14 -42 -19 -74 -38 -37
-38 -37 -225 5 -243 55 -563 70 -842 39 l-141 -15 -38 37 c-21 20 -41 51 -44
68 -4 17 -24 85 -45 151 -22 66 -64 212 -95 325 -31 113 -74 254 -96 314 -22
60 -51 154 -64 210 -24 101 -24 101 7 133 l31 32 43 -39 c53 -49 73 -50 112
-6 37 42 44 89 46 291 1 77 8 304 15 505 13 365 13 365 44 397 31 33 31 33 58
7 15 -14 55 -71 90 -127z"/>
<path d="M15922 11858 c-30 -36 -34 -108 -29 -485 4 -326 8 -392 25 -478 35
-174 71 -336 101 -455 86 -338 121 -675 85 -814 -20 -77 -73 -193 -125 -273
-55 -83 -61 -132 -23 -163 28 -22 34 -22 164 -16 74 3 191 15 260 27 96 16
181 22 363 25 283 5 314 12 347 86 37 81 17 219 -37 270 -40 37 -59 44 -141
57 -120 19 -203 74 -256 170 -15 28 -58 153 -97 278 -38 125 -87 282 -109 348
-22 66 -60 192 -86 280 -211 734 -312 1049 -358 1118 -23 35 -65 47 -84 25z"/>
<path d="M10585 10023 c-11 -3 -53 -18 -93 -34 -124 -49 -212 -69 -352 -80
-321 -23 -421 -68 -449 -199 -13 -63 -5 -717 10 -798 23 -119 74 -141 292
-123 84 7 254 16 378 21 246 9 300 18 341 58 51 48 52 61 53 572 0 519 -1 527
-59 565 -27 18 -88 27 -121 18z"/>
<path d="M6736 6539 c-68 -16 -268 -127 -357 -197 -396 -308 -436 -354 -394
-459 18 -45 244 -267 505 -498 80 -70 384 -360 675 -644 699 -681 1129 -1098
1241 -1202 149 -138 233 -173 445 -184 174 -9 8866 -13 9019 -4 144 8 181 21
279 94 63 49 341 313 612 584 81 81 360 351 620 601 261 250 564 543 674 650
251 246 320 310 471 437 161 136 190 192 144 283 -21 41 -24 43 -188 167 -353
265 -425 309 -557 338 -90 20 -184 16 -235 -10 -18 -10 -255 -234 -525 -499
-270 -264 -614 -598 -765 -741 -151 -143 -368 -350 -482 -460 -307 -294 -392
-370 -445 -395 -48 -23 -48 -23 -4113 -24 -4065 -1 -4065 -1 -4135 21 -98 32
-160 82 -456 370 -140 136 -372 359 -514 494 -524 497 -726 692 -993 962 -191
192 -287 282 -318 298 -52 24 -149 33 -208 18z"/>
</g>
<g fill="#FFFFFF">
<path d="M8151 19016 c-32 -33 -32 -33 -11 -97 34 -101 139 -357 180 -440 48
-95 80 -172 135 -324 24 -66 52 -140 63 -165 10 -25 56 -162 101 -305 46 -143
94 -286 107 -318 74 -177 320 -1209 379 -1597 8 -52 22 -139 30 -193 73 -473
111 -1421 76 -1877 -21 -263 -42 -504 -46 -520 -2 -8 -11 -85 -20 -169 -15
-157 -27 -231 -71 -446 -13 -66 -31 -167 -39 -224 -14 -100 -91 -390 -122
-461 -16 -36 -52 -148 -146 -450 -30 -96 -65 -197 -77 -225 -12 -27 -41 -109
-65 -182 -41 -124 -97 -248 -162 -359 -16 -27 -40 -76 -53 -109 -12 -33 -59
-129 -103 -214 l-80 -153 34 -34 34 -34 100 41 c289 119 733 269 1045 355 224
61 236 65 274 103 l39 39 -56 59 c-31 32 -62 72 -69 88 -10 24 -13 368 -13
1810 0 2360 11 5422 20 5461 7 30 3 35 -72 99 -116 100 -389 303 -447 332 -71
36 -421 246 -557 335 -139 91 -263 162 -328 188 -48 19 -48 19 -80 -14z"/>
<path d="M10883 17048 c-30 -33 -31 -34 -39 -183 -5 -82 -9 -859 -10 -1725 -1
-866 -2 -2158 -3 -2871 l-1 -1295 -39 -65 -40 -64 34 -34 c33 -34 33 -34 202
-22 677 47 1357 40 1818 -18 83 -11 179 -22 215 -26 76 -7 380 -54 390 -60 4
-2 96 -20 206 -40 109 -20 278 -57 374 -82 96 -25 220 -56 275 -70 92 -22 150
-39 415 -124 52 -17 181 -54 285 -84 l190 -53 33 31 c39 38 39 34 2 204 -57
260 -82 358 -121 473 -22 63 -55 165 -74 226 -19 60 -53 157 -76 215 -23 57
-65 174 -94 259 -47 139 -173 466 -242 625 -14 33 -45 94 -69 135 -23 41 -58
111 -77 155 -19 44 -53 118 -77 165 -24 47 -73 151 -110 232 -37 80 -93 185
-124 233 -31 48 -77 128 -103 178 -25 51 -63 117 -83 147 -21 30 -87 138 -147
240 -146 246 -293 478 -362 569 -31 40 -99 133 -151 206 -52 72 -117 156 -144
186 -27 30 -73 92 -104 139 -30 47 -80 117 -111 155 -32 39 -74 94 -94 124
-34 52 -149 192 -270 330 -241 277 -287 329 -312 351 -15 14 -59 63 -98 110
-92 111 -635 659 -802 809 -71 65 -170 145 -220 178 -49 34 -115 86 -145 117
-30 31 -57 56 -60 56 -3 0 -20 -15 -37 -32z"/>
<path d="M14861 15766 l-31 -32 66 -105 c36 -57 72 -111 79 -119 7 -8 32 -49
56 -90 23 -41 66 -106 94 -145 85 -113 167 -241 250 -390 43 -77 109 -194 145
-260 37 -66 89 -154 116 -196 27 -42 71 -112 98 -155 27 -44 65 -96 85 -116
l35 -38 32 31 c31 30 31 30 8 105 -66 207 -66 389 0 443 47 39 9 93 -218 313
-104 101 -240 244 -302 318 -118 142 -278 304 -405 407 l-76 62 -32 -33z"/>
<path d="M17233 12837 c-31 -32 -31 -32 -44 -397 -7 -201 -14 -428 -15 -505
-2 -202 -9 -249 -46 -291 -39 -44 -59 -43 -112 6 l-43 39 -31 -32 c-31 -32
-31 -32 -7 -133 13 -56 42 -150 64 -210 22 -60 65 -201 96 -314 31 -113 73
-259 95 -325 21 -66 41 -134 45 -151 3 -17 23 -48 44 -68 l38 -37 141 15 c279
31 599 16 842 -39 187 -42 187 -42 225 -5 33 32 33 32 19 74 -8 22 -34 79 -58
126 -24 47 -67 150 -96 230 -75 206 -167 410 -269 595 -49 88 -102 187 -118
220 -209 425 -327 637 -468 845 -50 74 -120 181 -154 237 -35 56 -75 113 -90
127 -27 26 -27 26 -58 -7z"/>
<path d="M19200 8370 c-47 -4 -200 -13 -340 -19 -291 -14 -608 -35 -820 -56
-324 -31 -443 -39 -615 -41 -179 -2 -179 -2 -212 -38 -28 -30 -33 -43 -33 -86
0 -50 -6 -85 -61 -370 -40 -204 -46 -224 -151 -440 -49 -102 -99 -207 -111
-235 -30 -71 -73 -142 -118 -196 l-38 -46 33 -32 c33 -32 33 -32 87 -10 30 12
91 34 136 49 75 26 353 164 554 275 44 24 157 81 252 126 95 45 199 99 232
119 33 20 98 59 145 85 47 27 128 76 180 109 52 34 134 81 182 105 49 25 118
68 155 96 38 28 133 93 213 145 146 94 363 259 466 353 l55 50 -32 33 c-19 19
-42 33 -53 33 -12 -1 -59 -5 -106 -9z"/>
<path d="M15185 8099 c-290 -11 -624 -28 -785 -39 -80 -6 -264 -17 -410 -25
-781 -45 -1466 -89 -1700 -110 -91 -7 -257 -19 -370 -25 -113 -6 -270 -17
-350 -25 -80 -8 -227 -19 -328 -23 -182 -8 -182 -8 -217 -42 -33 -32 -34 -34
-20 -66 8 -19 40 -69 72 -111 115 -152 122 -176 77 -265 l-26 -52 40 -38 c40
-37 43 -38 119 -38 119 -1 202 -16 356 -66 221 -73 390 -170 597 -345 199
-169 459 -370 586 -455 217 -145 355 -193 552 -194 233 0 391 55 599 208 43
32 101 73 128 92 28 19 75 57 105 85 53 49 137 119 348 288 258 207 529 338
797 383 88 15 104 21 134 50 l35 33 -37 47 c-53 68 -50 96 16 171 64 72 175
230 210 299 14 28 35 86 46 130 20 79 20 79 -11 111 -32 33 -32 33 -202 31
-94 0 -256 -4 -361 -9z"/>
<path d="M9055 7713 c-104 -6 -307 -17 -450 -23 -143 -6 -316 -15 -385 -20
-69 -5 -226 -16 -350 -24 -124 -9 -316 -22 -427 -30 -111 -9 -271 -20 -355
-26 -346 -24 -347 -25 -387 -64 -35 -35 -35 -35 -17 -74 10 -22 35 -56 55 -75
34 -32 42 -35 121 -41 377 -30 611 -140 975 -461 300 -265 456 -384 643 -494
289 -170 565 -234 802 -186 150 30 355 142 555 303 97 78 275 252 275 268 0 7
-32 40 -71 75 -145 128 -318 463 -395 763 -10 40 -26 72 -47 94 -31 32 -31 32
-191 30 -89 -1 -246 -8 -351 -15z"/>
</g>
</g>
</svg>
